# xmcd
#
# Track frame offsets:
#	150
#	6617
#	17904
#	30423
#	47235
#	59237
#	75717
#	88946
#	114351
#	129395
#	141975
#	150139
#	169824
#
# Disc length: 2589 seconds
#
# Revision: 1
# Processed by: cddbd v1.5.1PL0 Copyright (c) Steve Scherf et al.
# Submitted via: EasyCDDAExtractor 6.0.0.1
#
DISCID=ab0a1b0d
DTITLE=Country Sisters - Live
DYEAR=1999
DGENRE=Country
TTITLE0=Ragtime Annie
TTITLE1=Louisiana saturday night
TTITLE2=My dixie darlin'
TTITLE3=Jambalaya
TTITLE4=Diggi diggi lo
TTITLE5=Whatever way the wind blows
TTITLE6=Let me be there
TTITLE7=Czardas
TTITLE8=Let's go spending your money honey
TTITLE9=See you later alligator
TTITLE10=Barbara Ann
TTITLE11=Cotton eye Joe
TTITLE12=Orange Blossom Special
EXTD=
EXTT0=
EXTT1=
EXTT2=
EXTT3=
EXTT4=
EXTT5=
EXTT6=
EXTT7=
EXTT8=
EXTT9=
EXTT10=
EXTT11=
EXTT12=
PLAYORDER=
